<svg viewBox="0 0 96 96" xmlns="http://www.w3.org/2000/svg" xmlns:xlink="http://www.w3.org/1999/xlink" id="Icons_Group" overflow="hidden"><style>
.MsftOfcThm_Background1_Fill {
 fill:#FFFFFF; 
}
</style>
<g><circle cx="78" cy="25" r="5" class="MsftOfcThm_Background1_Fill" fill="#FFFFFF"/><circle cx="18" cy="25" r="5" class="MsftOfcThm_Background1_Fill" fill="#FFFFFF"/><circle cx="58" cy="25" r="5" class="MsftOfcThm_Background1_Fill" fill="#FFFFFF"/><circle cx="38" cy="25" r="5" class="MsftOfcThm_Background1_Fill" fill="#FFFFFF"/><path d="M89.9 49.5 86.7 34.9C86.6 34.5 86.4 34.1 86 33.8 84.8 32.9 83.5 32.1 82 31.7 80.7 31.3 79.4 31 78 31 76.6 31 75.2 31.2 74 31.7 72.5 32.2 71.2 32.9 70 33.8 69.6 34.1 69.4 34.5 69.3 34.9L68 40.8 68 40.8 66.7 34.9C66.6 34.5 66.4 34.1 66 33.8 64.8 32.9 63.5 32.1 62 31.7 60.7 31.3 59.4 31 58 31 56.6 31 55.2 31.2 54 31.7 52.5 32.2 51.2 32.9 50 33.8 49.6 34.1 49.4 34.5 49.3 34.9L48 40.7 48 40.8 46.7 34.9C46.6 34.5 46.4 34.1 46 33.8 44.8 32.9 43.5 32.1 42 31.7 40.7 31.3 39.4 31 38 31 36.6 31 35.2 31.2 34 31.7 32.5 32.2 31.2 32.9 30 33.8 29.6 34.1 29.4 34.5 29.3 34.9L28 40.7 28 40.7 26.7 34.9C26.6 34.5 26.4 34.1 26 33.8 24.8 32.9 23.5 32.1 22 31.7 20.7 31.3 19.4 31 18 31 16.6 31 15.2 31.2 14 31.7 12.5 32.2 11.2 32.9 10 33.8 9.6 34.1 9.4 34.5 9.3 34.9L6.1 49.4C5.8 50.5 6.5 51.7 7.7 51.9 7.8 51.9 7.9 51.9 8 51.9 8.9 51.9 9.7 51.3 10 50.3L13 37 13 44.1 10 59 13 59 13 76 17 76 17 59 19 59 19 76 23 76 23 59 26 59 23 44.1 23 37 26 50.4C26.2 51.3 27 52 27.9 52L27.9 52C28.8 52 29.6 51.4 29.8 50.4L33 37 33 53 33 76 37 76 37 53 39 53 39 76 43 76 43 53 43 37 46 50.4C46.2 51.3 47 52 48 52 48 52 48 52 48 52L48 52C48.9 52 49.7 51.4 49.9 50.4L53 37 53 44.2 50 59 53 59 53 76 57 76 57 59 59 59 59 76 63 76 63 59 66 59 63 44 63 37 66 50.4C66.2 51.3 67 52 68 52 68 52 68 52 68 52L68 52C68 52 68 52 68 52 68.9 52 69.7 51.4 70 50.4L73 37 73 53 73 76 77 76 77 53 79 53 79 76 83 76 83 53 83 37 86 50.4C86.2 51.3 87 52 88 52 88.2 52 88.5 52 88.7 51.9 89.6 51.5 90.1 50.5 89.9 49.5Z" class="MsftOfcThm_Background1_Fill" fill="#FFFFFF"/></g></svg>