<svg viewBox="0 0 96 96" xmlns="http://www.w3.org/2000/svg" xmlns:xlink="http://www.w3.org/1999/xlink" id="Icons_Teacher" overflow="hidden"><path d="M87.8 19 23.8 19C21.6 19 19.8 20.8 19.8 23L19.8 37.5C20.9 37.2 22.2 37 23.4 37 24.2 37 25 37.1 25.8 37.2L25.8 25 85.8 25 85.8 63 51.9 63 46.2 69 87.8 69C90 69 91.8 67.2 91.8 65L91.8 23C91.8 20.8 90 19 87.8 19" fill="#FFFFFF"/><path d="M23.5 58C28.2 58 32 54.2 32 49.5 32 44.8 28.2 41 23.5 41 18.8 41 15 44.8 15 49.5 14.9 54.2 18.8 58 23.5 58" fill="#FFFFFF"/><path d="M56.2 48.1C54.9 46.1 52.3 45.6 50.3 46.8 49.9 47 49.7 47.4 49.5 47.6L34.9 62.8C33.5 62.1 32 61.5 30.5 61 28.2 60.6 25.8 60.1 23.5 60.1 21.2 60.1 18.8 60.5 16.5 61.2 13.1 62.1 10.1 63.8 7.6 65.9 7 66.5 6.5 67.4 6.3 68.2L4.2 77 34.1 77 34.1 76.9 42.6 67 55.7 53.2C56.9 52 57.3 49.7 56.2 48.1" fill="#FFFFFF"/></svg>