<svg viewBox="0 0 96 96" xmlns="http://www.w3.org/2000/svg" xmlns:xlink="http://www.w3.org/1999/xlink" id="Icons_GroupBrainstorm" overflow="hidden"><path d="M52.75 39.05 43.94 39.05C43.1116 39.05 42.44 39.7216 42.44 40.55 42.44 41.3784 43.1116 42.05 43.94 42.05L52.75 42.05C53.5784 42.05 54.25 41.3784 54.25 40.55 54.25 39.7216 53.5784 39.05 52.75 39.05Z" fill="#FFFFFF"/><path d="M48.34 47C50.0301 46.9984 51.4294 45.6865 51.54 44L45.15 44C45.2555 45.6849 46.6518 46.998 48.34 47Z" fill="#FFFFFF"/><path d="M48.34 10.44 48.34 10.44C41.356 10.4877 35.6847 16.0969 35.56 23.08L35.56 23.52C35.5939 25.0537 35.8951 26.5698 36.45 28 36.9668 29.3361 37.7187 30.5689 38.67 31.64 39.8559 33.1376 40.8627 34.7687 41.67 36.5 41.8378 36.8331 42.1771 37.0451 42.55 37.05L54.15 37.05C54.5229 37.0451 54.8622 36.8331 55.03 36.5 55.838 34.7691 56.8448 33.1381 58.03 31.64 58.9752 30.5662 59.7234 29.334 60.24 28 60.7798 26.5828 61.0806 25.0857 61.13 23.57L61.13 23.13C61.0268 16.1258 55.3448 10.4882 48.34 10.44ZM58.18 23.44C58.1386 24.6207 57.902 25.7865 57.48 26.89 57.0858 27.8809 56.5206 28.7948 55.81 29.59 54.6865 30.9516 53.7235 32.4381 52.94 34.02L43.75 34.02C42.9629 32.4379 41.9966 30.9514 40.87 29.59 40.1625 28.7944 39.6006 27.8805 39.21 26.89 38.788 25.7865 38.5514 24.6207 38.51 23.44L38.51 23.08C38.6023 17.7077 42.967 13.3918 48.34 13.36L48.34 13.36C53.7147 13.3917 58.0824 17.7061 58.18 23.08Z" fill="#FFFFFF"/><path d="M43.52 26.33 48.81 16 48.81 21.98 54.3 20.89 48.81 31 48.81 25.13 43.52 26.33Z" fill="#FFFFFF"/><circle cx="69.06" cy="53.53" r="7.78" fill="#FFFFFF"/><circle cx="27.56" cy="53.53" r="7.78" fill="#FFFFFF"/><path d="M83.06 68.05C80.819 66.3046 78.226 65.0662 75.46 64.42 73.3785 63.8128 71.2275 63.4767 69.06 63.42 66.8874 63.4152 64.7276 63.7527 62.66 64.42 60.5887 64.972 58.6082 65.8208 56.78 66.94 56.66 67.08 56.55 67.22 56.42 67.35 59.3282 68.1327 62.0489 69.4931 64.42 71.35 66.291 72.7156 67.3833 74.9039 67.35 77.22L67.35 79 84.62 79 84.62 71.17C84.6501 69.9355 84.0656 68.7666 83.06 68.05Z" fill="#FFFFFF"/><path d="M29.29 77.22C29.2922 74.9698 30.3237 72.8442 32.09 71.45L32.21 71.35 32.34 71.26C34.7382 69.554 37.3909 68.2378 40.2 67.36 40 67.15 39.82 66.93 39.63 66.71 37.8726 65.6812 35.9766 64.91 34 64.42 31.9187 63.812 29.7675 63.4758 27.6 63.42 25.4274 63.4159 23.2678 63.7534 21.2 64.42 18.4725 65.1725 15.8996 66.4015 13.6 68.05 12.615 68.7884 12.0248 69.9392 12 71.17L12 79 29.29 79Z" fill="#FFFFFF"/><path d="M32.75 85 32.75 77.22C32.7547 75.9963 33.332 74.8454 34.31 74.11 36.6054 72.4545 39.1797 71.2249 41.91 70.48 43.9767 69.8088 46.1371 69.4712 48.31 69.48 50.478 69.5309 52.6298 69.8672 54.71 70.48 57.4814 71.1196 60.0789 72.3587 62.32 74.11 63.3216 74.8245 63.9025 75.9901 63.87 77.22L63.87 85Z" fill="#FFFFFF"/><circle cx="48.31" cy="59.58" r="7.78" fill="#FFFFFF"/></svg>