<?xml version="1.0" encoding="iso-8859-1"?>
<!-- Generator: Adobe Illustrator 16.0.0, SVG Export Plug-In . SVG Version: 6.00 Build 0)  -->
<!DOCTYPE svg PUBLIC "-//W3C//DTD SVG 1.1//EN" "http://www.w3.org/Graphics/SVG/1.1/DTD/svg11.dtd">
<svg version="1.1" id="Capa_1" xmlns="http://www.w3.org/2000/svg" xmlns:xlink="http://www.w3.org/1999/xlink" x="0px" y="0px"
	 width="222.504px" height="222.504px" viewBox="0 0 222.504 222.504" style="enable-background:new 0 0 222.504 222.504;"
	 xml:space="preserve">
<g>
	<path fill="#FFFFFF" d="M178.085,27.119C165.62,13.202,149.152,0.287,108.444,0.003C92.539-0.124,68.26,3.638,49.369,23.614
		C37.938,35.677,29.53,50.918,31.92,75.829c0.521,5.406,8.237,11.659,2.814,22.091c0,0-11.65,20.502-11.24,23.912
		c0,0-0.207,6.236,9.443,6.432c0,0,2.409,0.312,1.714,5.627l-0.115,7.748c0,0,0.307,2.306,4.528,3.707c0,0,0.804,0.804-0.396,2.322
		c0,0-2.22,2.477,1.604,7.832c1.416,1.95,3.718,4.409,2.311,9.457c0,0-1.809,9.729,2.01,12.059c0,0,4.342,5.153,21.813,2.996
		c6.109-0.75,17.384-3.706,24.104,4.734c0,0,16.068,30.535,17.292,37.758c0,0,27.423-48.822,60.896-56.358
		c0,0-8.157-18.389,8.435-42.203c0,0,20.794-27.432,21.409-42.501C198.531,81.441,204.015,56.049,178.085,27.119z M78.702,57.32
		c-1.188,0.432-1.98,1.563-1.992,2.822l-0.127,14.191C52.7,72.93,52.916,62.412,54.981,49.042
		c1.64-10.619,9.901-19.334,22.068-24.89l-0.139,15.894c-0.012,1.259,0.762,2.396,1.936,2.852c1.173,0.461,2.5,0.133,3.354-0.81
		c2.37-2.666,5.695-4.185,9.167-4.185c0.039,0,0.068,0,0.104,0c6.78,0.062,12.25,5.636,12.197,12.427
		c-0.068,6.753-5.585,12.22-12.318,12.22c-0.042,0-0.077,0-0.109,0c-3.502-0.029-6.851-1.61-9.183-4.335
		C81.208,57.237,79.869,56.891,78.702,57.32z M152,95.033c-5.143-0.52-10.385-1.924-15.185-3.987
		c-12.519-5.37-15.982-19.642-35.653-17.626c-7.244,0.745-13.296,1.052-18.545,1.064l0.08-8.085c2.589,1.392,5.476,2.16,8.455,2.192
		c0.053,0,0.101,0,0.145,0c10.045,0,18.285-8.136,18.374-18.214c0.091-10.131-8.08-18.441-18.199-18.533
		c-2.875,0.012-5.884,0.697-8.485,2.045l0.115-12.158c9.841-3.322,21.571-4.823,34.196-3.916
		c12.986,0.913,25.139,4.758,35.306,10.574l-0.065,6.088c-2.589-1.398-5.474-2.167-8.458-2.19
		c-9.954,0.133-18.418,8.086-18.536,18.211c-0.048,4.915,1.838,9.54,5.267,13.045c3.439,3.496,8.032,5.447,12.95,5.482
		c3.079-0.08,5.881-0.688,8.476-2.045L152,95.033z M158.053,95.193l0.308-34.362c0.012-1.259-0.763-2.396-1.933-2.849
		c-1.171-0.455-2.5-0.136-3.357,0.81c-2.395,2.687-5.645,4.055-9.25,4.176c-3.287-0.023-6.372-1.339-8.672-3.673
		c-2.316-2.35-3.57-5.447-3.54-8.733c0.077-6.762,5.585-12.227,12.317-12.227c0.036,0,0.077,0,0.113,0
		c3.558,0.029,6.82,1.572,9.19,4.338c0.815,0.963,2.151,1.3,3.334,0.883c1.188-0.428,1.98-1.554,1.992-2.813l0.083-8.5
		c11.986,8.571,20.161,20.218,21.698,33.145C182.826,86.416,171.648,94.531,158.053,95.193z"/>
</g>
<g>
</g>
<g>
</g>
<g>
</g>
<g>
</g>
<g>
</g>
<g>
</g>
<g>
</g>
<g>
</g>
<g>
</g>
<g>
</g>
<g>
</g>
<g>
</g>
<g>
</g>
<g>
</g>
<g>
</g>
</svg>
