<svg viewBox="0 0 96 96" xmlns="http://www.w3.org/2000/svg" xmlns:xlink="http://www.w3.org/1999/xlink" id="Icons_Questions_LTR" overflow="hidden"><style>
.MsftOfcThm_Background1_Fill {
 fill:#FFFFFF; 
}
</style>
<circle cx="30.5" cy="44.6" r="9" class="MsftOfcThm_Background1_Fill" fill="#FFFFFF"/><path d="M72.5 88 72.5 79C72.5369 77.5751 71.862 76.2254 70.7 75.4 68.1096 73.3725 65.1055 71.9387 61.9 71.2 59.4966 70.4775 57.0086 70.0741 54.5 70 51.9855 70.0078 49.4881 70.4127 47.1 71.2 43.94 72.065 40.9599 73.4874 38.3 75.4 37.1718 76.2539 36.5062 77.5851 36.5 79L36.5 88Z" class="MsftOfcThm_Background1_Fill" fill="#FFFFFF"/><circle cx="54.5" cy="58.6" r="9" class="MsftOfcThm_Background1_Fill" fill="#FFFFFF"/><path d="M35.9 72.2 35.9 72.2C38.7079 70.1961 41.8121 68.644 45.1 67.6 42.8259 65.2303 41.5388 62.0841 41.5 58.8L41.5 58.4C40.3317 57.9105 39.1283 57.5094 37.9 57.2 35.4966 56.4775 33.0086 56.074 30.5 56 27.9855 56.0077 25.4881 56.4127 23.1 57.2 19.9721 58.1495 17.0054 59.5654 14.3 61.4 13.138 62.2254 12.4631 63.5751 12.5 65L12.5 74 34.1 74C34.5958 73.3042 35.2042 72.6958 35.9 72.2Z" class="MsftOfcThm_Background1_Fill" fill="#FFFFFF"/><path d="M81.35 8 43.58 8C42.4241 8.011 41.4944 8.95407 41.5 10.11L41.5 35.86C41.4779 37.0196 42.3999 37.9776 43.5595 37.9997 43.5663 37.9998 43.5732 37.9999 43.58 38L49.58 38 49.58 46.44 57.87 38 81.35 38C82.5075 37.989 83.44 37.0476 83.44 35.89L83.44 10.11C83.4401 8.95245 82.5075 8.01097 81.35 8ZM62.29 34.25C61.0639 34.2499 60.0701 33.2559 60.0702 32.0298 60.0703 30.8037 61.0643 29.8099 62.2904 29.81 63.5047 29.8101 64.4936 30.7858 64.51 32 64.5321 33.2203 63.5607 34.2276 62.3404 34.2497 62.3236 34.25 62.3068 34.2501 62.29 34.25ZM63.72 25.1 63.72 28.25 60.87 28.25 60.87 22.36 62.29 22.36C64.77 22.36 66.37 20.91 66.37 18.68 66.4091 16.4712 64.6502 14.6489 62.4414 14.6098 62.391 14.6089 62.3405 14.609 62.29 14.61 60.2333 14.4189 58.4111 15.9312 58.22 17.9879 58.1986 18.2181 58.1986 18.4498 58.22 18.68L58.22 18.93 55.37 18.93 55.37 18.68C55.154 15.069 57.9062 11.9666 61.5172 11.7506 61.7746 11.7352 62.0326 11.735 62.29 11.75 66.0729 11.7056 69.1756 14.7362 69.22 18.5191 69.2206 18.5727 69.2206 18.6264 69.22 18.68 69.3171 21.9183 66.9349 24.6991 63.72 25.1Z" class="MsftOfcThm_Background1_Fill" fill="#FFFFFF"/></svg>