<svg viewBox="0 0 96 96" xmlns="http://www.w3.org/2000/svg" xmlns:xlink="http://www.w3.org/1999/xlink" id="Icons_Internet" overflow="hidden"><style>
.MsftOfcThm_Background1_Fill {
 fill:#FFFFFF; 
}
</style>
<path d="M76 60 20 60 20 26 76 26ZM82 24C82 21.7909 80.2091 20 78 20L18 20C15.7909 20 14 21.7909 14 24L14 66 82 66Z" class="MsftOfcThm_Background1_Fill" fill="#FFFFFF"/><path d="M54 70 54 71C54.0343 71.518 53.6421 71.9657 53.1241 72 53.0828 72.0027 53.0413 72.0027 53 72L43 72C42.482 72.0343 42.0343 71.6421 42 71.1241 41.9973 71.0828 41.9973 71.0413 42 71L42 70 2 70 2 72C2 74.2091 3.79086 76 6 76L90 76C92.2091 76 94 74.2091 94 72L94 70Z" class="MsftOfcThm_Background1_Fill" fill="#FFFFFF"/><path d="M48 29C40.268 29 34 35.268 34 43 34 50.732 40.268 57 48 57 55.732 57 62 50.732 62 43 62 35.268 55.732 29 48 29ZM49 44 53.59 44C53.0673 47.4474 51.4595 50.6385 49 53.11ZM49 42 49 32.88C51.462 35.3538 53.07 38.5488 53.59 42ZM47 42 42.56 42C43.0573 38.6079 44.6109 35.4588 47 33ZM47 44 47 53C44.6154 50.538 43.0625 47.3905 42.56 44ZM40.55 42 36.27 42C36.7139 36.762 40.5802 32.4549 45.74 31.45 42.8892 34.2947 41.0637 38.0055 40.55 42ZM40.55 44C41.0641 48.0014 42.8974 51.7173 45.76 54.56 40.5925 53.5558 36.7185 49.245 36.27 44ZM55.6 44 59.73 44C59.2921 49.1786 55.507 53.4557 50.42 54.52 53.2693 51.6876 55.0922 47.9854 55.6 44ZM55.6 42C55.0881 38.025 53.2776 34.3303 50.45 31.49 55.5219 32.5648 59.2915 36.8341 59.73 42Z" class="MsftOfcThm_Background1_Fill" fill="#FFFFFF"/></svg>